<svg id="Capa_1" data-name="Capa 1" xmlns="http://www.w3.org/2000/svg" viewBox="0 0 381.26 390.93"><title>huellacaninablanca</title><path d="M207,220.75c-22.3-.44-43.6,9.54-60.75,29.63-22,25.8-40.39,54.08-57.68,83.12-4.32,7.25-8.32,14.72-10.66,23-6.18,21.78,3.45,42,24.67,49.42a72.37,72.37,0,0,0,53.55-1.73c7.69-3.23,14.28-8.48,22.18-11.21,17-5.87,34.41-5.18,51.86-3.2a49.86,49.86,0,0,1,21.48,7.5A77.81,77.81,0,0,0,307,409c20-3,33.38-14.11,36.93-31.31,2.53-12.29-.35-23.74-6.16-34.63-13.59-25.45-29.89-49.13-47.06-72.24-6.26-8.42-13.2-16.3-19.92-24.35C255.13,227.74,234.6,220.86,207,220.75Zm-12-118.66c-.36-6.24-.59-13.23-1.79-20.15-3-17.49-8.93-33.75-20.9-47.26-16.22-18.3-38.23-20.45-56.29-5.55a60.6,60.6,0,0,0-13.69,16.42c-13.26,22.8-16.45,47.54-13.49,73.28,2,17.09,7.16,33.16,17.57,47.11,8,10.75,17.93,18.93,32,20,16.72,1.28,28.56-7.42,37.88-20.06C190.08,147.18,194.49,125.55,195.05,102.09Zm124.41.55a110.71,110.71,0,0,0-1.14-17.46c-2.76-18.75-8.7-36.17-21.5-50.67C279.64,15,255.66,14.18,237.21,32.35a68.21,68.21,0,0,0-13.47,19.08c-10.63,22-13.4,45.17-10.09,69.09,2.56,18.57,8.57,35.91,21.33,50.22,7.53,8.45,16.57,14.45,28.23,15.23,16.53,1.11,28.27-7.38,37.51-19.85C314.64,147.31,319.22,125.56,319.46,102.64ZM297.14,227.32c-.23,6,1.08,11.69,2.53,17.33,3.58,13.86,13.57,23.32,26.71,24.9,10.84,1.3,20.27-2.91,28.88-8.9,17.64-12.28,28.4-29.65,34.8-49.71,4.65-14.59,6-29.56,1.69-44.69-4.22-14.75-14.62-24-28.89-24.79-9.56-.54-18.14,2.95-25.61,8.33C310.84,168.82,298.89,195.52,297.14,227.32Zm-186.95-2.16a92.66,92.66,0,0,0-8.46-36c-8.52-18.8-20.58-34.46-39.65-43.83-17.83-8.76-36.37-2.55-44.37,15.2a54.24,54.24,0,0,0-4.38,18.33c-1.11,15.13,2,29.56,8.14,43.21,8.57,18.94,20.76,34.76,40.14,44C80.23,275,99.1,267.6,106.4,248.33,109,241.57,110,234.5,110.19,225.16Z" transform="translate(-13.11 -19.29)" style="fill:#fff"/><path d="M207,220.75c27.57.11,48.1,7,63.72,25.75,6.72,8.05,13.66,15.93,19.92,24.35,17.17,23.11,33.47,46.79,47.06,72.24,5.81,10.89,8.69,22.34,6.16,34.63C340.34,394.92,327,406,307,409a77.81,77.81,0,0,1-55.28-11.77,49.86,49.86,0,0,0-21.48-7.5c-17.45-2-34.87-2.67-51.86,3.2-7.9,2.73-14.49,8-22.18,11.21a72.37,72.37,0,0,1-53.55,1.73c-21.22-7.45-30.85-27.64-24.67-49.42,2.34-8.26,6.34-15.73,10.66-23,17.29-29,35.65-57.32,57.68-83.12C163.43,230.29,184.73,220.31,207,220.75Z" transform="translate(-13.11 -19.29)" style="fill:#fff"/><path d="M195.05,102.09c-.56,23.46-5,45.09-18.76,63.79-9.32,12.64-21.16,21.34-37.88,20.06-14-1.07-23.93-9.25-31.95-20-10.41-13.95-15.61-30-17.57-47.11-3-25.74.23-50.48,13.49-73.28a60.6,60.6,0,0,1,13.69-16.42c18.06-14.9,40.07-12.75,56.29,5.55,12,13.51,17.86,29.77,20.9,47.26C194.46,88.86,194.69,95.85,195.05,102.09Z" transform="translate(-13.11 -19.29)" style="fill:#fff"/><path d="M319.46,102.64c-.24,22.92-4.82,44.67-18.74,63.48-9.24,12.47-21,21-37.51,19.85-11.66-.78-20.7-6.78-28.23-15.23-12.76-14.31-18.77-31.65-21.33-50.22-3.31-23.92-.54-47.13,10.09-69.09a68.21,68.21,0,0,1,13.47-19.08c18.45-18.17,42.43-17.31,59.61,2.16,12.8,14.5,18.74,31.92,21.5,50.67A110.71,110.71,0,0,1,319.46,102.64Z" transform="translate(-13.11 -19.29)" style="fill:#fff"/><path d="M297.14,227.32c1.75-31.8,13.7-58.5,40.11-77.53,7.47-5.38,16.05-8.87,25.61-8.33,14.27.8,24.67,10,28.89,24.79,4.32,15.13,3,30.1-1.69,44.69-6.4,20.06-17.16,37.43-34.8,49.71-8.61,6-18,10.2-28.88,8.9-13.14-1.58-23.13-11-26.71-24.9C298.22,239,296.91,233.33,297.14,227.32Z" transform="translate(-13.11 -19.29)" style="fill:#fff"/><path d="M110.19,225.16c-.22,9.34-1.23,16.41-3.79,23.17C99.1,267.6,80.23,275,61.61,266.05,42.23,256.79,30,241,21.47,222c-6.17-13.65-9.25-28.08-8.14-43.21a54.24,54.24,0,0,1,4.38-18.33c8-17.75,26.54-24,44.37-15.2,19.07,9.37,31.13,25,39.65,43.83A92.66,92.66,0,0,1,110.19,225.16Z" transform="translate(-13.11 -19.29)" style="fill:#fff"/></svg>