<svg id="Capa_1" data-name="Capa 1" xmlns="http://www.w3.org/2000/svg" viewBox="0 0 463.83 402.75"><title>huellagatunablanca</title><path d="M350.4,415.08c2.82-.33,5.84-.45,8.76-1.05,26.53-5.45,43.31-22,51-47.29,7.73-25.54,1.95-48.38-17.68-67.06q-38.93-37-78-73.83c-37.24-34.92-92.82-34.83-130.08.16-26,24.4-51.8,49-77.69,73.48-18.39,17.4-24.55,38.56-19.15,63.14,6.56,29.8,31.28,51,61.3,52.4,15.3.7,30.05-2.88,44.68-7,17-4.73,33.91-9.46,51.75-10,22.29-.72,43.57,4.38,64.85,10C323.25,411.45,336.46,414.86,350.4,415.08ZM234.66,88.78C234,68.85,230.07,49,216.94,32c-20.15-26-53.86-26.11-74.34-.45-23.79,29.8-24,83.1-.5,113.59,21.38,27.71,53.63,27.83,74.92.06C229.53,128.91,234.26,109.94,234.66,88.78Zm29.72-2.84c-.06,17.08,2.5,30.53,8.14,43.36a78.11,78.11,0,0,0,10.85,17.82c20.1,24.81,51.16,25.08,71.53.51,11.87-14.33,17.71-31.16,19-49.45,1.69-23.68-2.31-46.29-17-65.66-20.44-27-55.06-26.76-75.5.23C268.87,49.37,265.08,68.76,264.38,85.94ZM112.54,194.68a73.29,73.29,0,0,0-1.06-12.08c-3.14-21.91-11.28-41.42-28.51-56-21.22-18-48.47-11.5-59.48,14-6.85,15.86-7.08,32.37-4,49,3.55,19.19,10.65,36.76,25.06,50.54,21.32,20.39,50.14,14.54,62-12.47C111,217.77,112.45,207.29,112.54,194.68Zm273.89-1.17c-.06,17.43,2.58,28.86,8,38.42,11.39,20.18,33.91,25.83,53.43,13.37a53.19,53.19,0,0,0,14.47-13.62c13.05-18,19-38.24,19.12-60.26.1-12.84-2.39-25.19-9.1-36.3-8-13.23-19.46-20.41-35.32-18.44-11.67,1.45-20.63,8-28.1,16.69C393.05,151.72,386.79,173.52,386.43,193.51Z" transform="translate(-17.59 -12.38)" style="fill:#fff"/><path d="M350.4,415.08c-13.94-.22-27.15-3.63-40.33-7.08-21.28-5.58-42.56-10.68-64.85-10-17.84.57-34.78,5.3-51.75,10-14.63,4.08-29.38,7.66-44.68,7-30-1.37-54.74-22.6-61.3-52.4-5.4-24.58.76-45.74,19.15-63.14,25.89-24.5,51.71-49.08,77.69-73.48,37.26-35,92.84-35.08,130.08-.16q39.19,36.74,78,73.83c19.63,18.68,25.41,41.52,17.68,67.06-7.66,25.28-24.44,41.84-51,47.29C356.24,414.63,353.22,414.75,350.4,415.08Z" transform="translate(-17.59 -12.38)" style="fill:#fff"/><path d="M234.66,88.78c-.4,21.16-5.13,40.13-17.64,56.46-21.29,27.77-53.54,27.65-74.92-.06-23.52-30.49-23.29-83.79.5-113.59,20.48-25.66,54.19-25.53,74.34.45C230.07,49,234,68.85,234.66,88.78Z" transform="translate(-17.59 -12.38)" style="fill:#fff"/><path d="M264.38,85.94c.7-17.18,4.49-36.57,17.08-53.19,20.44-27,55.06-27.26,75.5-.23,14.65,19.37,18.65,42,17,65.66-1.31,18.29-7.15,35.12-19,49.45-20.37,24.57-51.43,24.3-71.53-.51a78.11,78.11,0,0,1-10.85-17.82C266.88,116.47,264.32,103,264.38,85.94Z" transform="translate(-17.59 -12.38)" style="fill:#fff"/><path d="M112.54,194.68c-.09,12.61-1.58,23.09-6,33-11.9,27-40.72,32.86-62,12.47C30.14,226.38,23,208.81,19.49,189.62c-3.08-16.66-2.85-33.17,4-49,11-25.54,38.26-32.07,59.48-14,17.23,14.63,25.37,34.14,28.51,56.05A73.29,73.29,0,0,1,112.54,194.68Z" transform="translate(-17.59 -12.38)" style="fill:#fff"/><path d="M386.43,193.51c.36-20,6.62-41.79,22.47-60.14,7.47-8.65,16.43-15.24,28.1-16.69,15.86-2,27.34,5.21,35.32,18.44,6.71,11.11,9.2,23.46,9.1,36.3-.15,22-6.07,42.31-19.12,60.26a53.19,53.19,0,0,1-14.47,13.62c-19.52,12.46-42,6.81-53.43-13.37C389,222.37,386.37,210.94,386.43,193.51Z" transform="translate(-17.59 -12.38)" style="fill:#fff"/></svg>